<?xml version="1.0" encoding="utf-8" standalone="no"?>
<!DOCTYPE svg PUBLIC "-//W3C//DTD SVG 1.1//EN"
  "http://www.w3.org/Graphics/SVG/1.1/DTD/svg11.dtd">
<svg xmlns:xlink="http://www.w3.org/1999/xlink" width="864pt" height="432pt" viewBox="0 0 864 432" xmlns="http://www.w3.org/2000/svg" version="1.1">
 <metadata>
  <rdf:RDF xmlns:dc="http://purl.org/dc/elements/1.1/" xmlns:cc="http://creativecommons.org/ns#" xmlns:rdf="http://www.w3.org/1999/02/22-rdf-syntax-ns#">
   <cc:Work>
    <dc:type rdf:resource="http://purl.org/dc/dcmitype/StillImage"/>
    <dc:date>2026-08-03T08:00:36.849009</dc:date>
    <dc:format>image/svg+xml</dc:format>
    <dc:creator>
     <cc:Agent>
      <dc:title>Matplotlib v3.10.8, https://matplotlib.org/</dc:title>
     </cc:Agent>
    </dc:creator>
   </cc:Work>
  </rdf:RDF>
 </metadata>
 <defs>
  <style type="text/css">*{stroke-linejoin: round; stroke-linecap: butt}</style>
 </defs>
 <g id="figure_1">
  <g id="patch_1">
   <path d="M 0 432 
L 864 432 
L 864 0 
L 0 0 
z
" style="fill: #ffffff"/>
  </g>
  <g id="axes_1">
   <g id="patch_2">
    <path d="M 64.19 389.32 
L 853.2 389.32 
L 853.2 36.6 
L 64.19 36.6 
z
" style="fill: #f8f9fa"/>
   </g>
   <g id="FillBetweenPolyCollection_1">
    <defs>
     <path id="mfb46eb4929" d="M 100.054091 -58.712727 
L 100.054091 -117.295949 
L 110.75979 -140.095905 
L 121.465488 -118.321343 
L 132.171187 -129.359418 
L 142.876886 -182.521617 
L 153.582585 -98.85392 
L 164.288284 -72.548018 
L 174.993982 -67.541679 
L 185.699681 -80.23094 
L 196.40538 -92.475361 
L 207.111079 -105.601923 
L 217.816777 -80.276178 
L 228.522476 -91.744013 
L 239.228175 -137.306228 
L 249.933874 -71.82421 
L 260.639573 -94.036072 
L 271.345271 -78.617451 
L 282.05097 -89.278542 
L 292.756669 -194.238262 
L 303.462368 -106.144779 
L 314.168066 -132.103857 
L 324.873765 -118.811422 
L 335.579464 -99.826538 
L 346.285163 -70.308737 
L 356.990862 -154.556988 
L 367.69656 -81.716255 
L 378.402259 -86.172199 
L 389.107958 -107.170174 
L 399.813657 -67.405965 
L 410.519355 -100.731298 
L 421.225054 -101.145979 
L 431.930753 -73.88254 
L 442.636452 -86.805531 
L 453.342151 -119.218564 
L 464.047849 -162.405783 
L 474.753548 -191.750171 
L 485.459247 -98.115033 
L 496.164946 -170.307355 
L 506.870645 -90.138064 
L 517.576343 -119.866975 
L 528.282042 -103.596372 
L 538.987741 -96.237656 
L 549.69344 -71.281354 
L 560.399138 -77.931341 
L 571.104837 -80.042448 
L 581.810536 -142.124076 
L 592.516235 -160.453009 
L 603.221934 -109.145567 
L 613.927632 -102.359866 
L 624.633331 -133.355442 
L 635.33903 -131.447906 
L 646.044729 -72.623415 
L 656.750427 -105.624542 
L 667.456126 -79.152768 
L 678.161825 -132.390364 
L 688.867524 -78.549594 
L 699.573223 -77.494041 
L 710.278921 -89.904334 
L 720.98462 -143.654628 
L 731.690319 -99.419395 
L 742.396018 -191.425966 
L 753.101716 -235.284215 
L 763.807415 -118.095153 
L 774.513114 -187.384703 
L 785.218813 -143.647089 
L 795.924512 -181.119239 
L 806.63021 -149.686363 
L 817.335909 -120.032848 
L 817.335909 -58.712727 
L 817.335909 -58.712727 
L 806.63021 -58.712727 
L 795.924512 -58.712727 
L 785.218813 -58.712727 
L 774.513114 -58.712727 
L 763.807415 -58.712727 
L 753.101716 -58.712727 
L 742.396018 -58.712727 
L 731.690319 -58.712727 
L 720.98462 -58.712727 
L 710.278921 -58.712727 
L 699.573223 -58.712727 
L 688.867524 -58.712727 
L 678.161825 -58.712727 
L 667.456126 -58.712727 
L 656.750427 -58.712727 
L 646.044729 -58.712727 
L 635.33903 -58.712727 
L 624.633331 -58.712727 
L 613.927632 -58.712727 
L 603.221934 -58.712727 
L 592.516235 -58.712727 
L 581.810536 -58.712727 
L 571.104837 -58.712727 
L 560.399138 -58.712727 
L 549.69344 -58.712727 
L 538.987741 -58.712727 
L 528.282042 -58.712727 
L 517.576343 -58.712727 
L 506.870645 -58.712727 
L 496.164946 -58.712727 
L 485.459247 -58.712727 
L 474.753548 -58.712727 
L 464.047849 -58.712727 
L 453.342151 -58.712727 
L 442.636452 -58.712727 
L 431.930753 -58.712727 
L 421.225054 -58.712727 
L 410.519355 -58.712727 
L 399.813657 -58.712727 
L 389.107958 -58.712727 
L 378.402259 -58.712727 
L 367.69656 -58.712727 
L 356.990862 -58.712727 
L 346.285163 -58.712727 
L 335.579464 -58.712727 
L 324.873765 -58.712727 
L 314.168066 -58.712727 
L 303.462368 -58.712727 
L 292.756669 -58.712727 
L 282.05097 -58.712727 
L 271.345271 -58.712727 
L 260.639573 -58.712727 
L 249.933874 -58.712727 
L 239.228175 -58.712727 
L 228.522476 -58.712727 
L 217.816777 -58.712727 
L 207.111079 -58.712727 
L 196.40538 -58.712727 
L 185.699681 -58.712727 
L 174.993982 -58.712727 
L 164.288284 -58.712727 
L 153.582585 -58.712727 
L 142.876886 -58.712727 
L 132.171187 -58.712727 
L 121.465488 -58.712727 
L 110.75979 -58.712727 
L 100.054091 -58.712727 
z
" style="stroke: #1d3557; stroke-opacity: 0.1"/>
    </defs>
    <g clip-path="url(#peb46c8322b)">
     <use xlink:href="#mfb46eb4929" x="0" y="432" style="fill: #1d3557; fill-opacity: 0.1; stroke: #1d3557; stroke-opacity: 0.1"/>
    </g>
   </g>
   <g id="FillBetweenPolyCollection_2">
    <defs>
     <path id="mb15c2150ea" d="M 100.054091 -58.712727 
L 100.054091 -140.005429 
L 110.75979 -124.714982 
L 121.465488 -165.564904 
L 132.171187 -138.007417 
L 142.876886 -104.614227 
L 153.582585 -85.131724 
L 164.288284 -122.505859 
L 174.993982 -77.215073 
L 185.699681 -140.88003 
L 196.40538 -136.197897 
L 207.111079 -70.7008 
L 217.816777 -63.523036 
L 228.522476 -62.150816 
L 239.228175 -123.568952 
L 249.933874 -62.987719 
L 260.639573 -76.242456 
L 271.345271 -72.457542 
L 282.05097 -82.108317 
L 292.756669 -94.171786 
L 303.462368 -84.264663 
L 314.168066 -159.887534 
L 324.873765 -188.681526 
L 335.579464 -115.735237 
L 346.285163 -64.78216 
L 356.990862 -175.434329 
L 367.69656 -79.152768 
L 378.402259 -99.886855 
L 389.107958 -101.198757 
L 399.813657 -73.875 
L 410.519355 -75.827774 
L 421.225054 -75.194442 
L 431.930753 -69.55477 
L 442.636452 -71.794051 
L 453.342151 -107.72811 
L 464.047849 -82.96784 
L 474.753548 -102.209073 
L 485.459247 -62.392085 
L 496.164946 -97.843605 
L 506.870645 -64.653986 
L 517.576343 -109.258662 
L 528.282042 -145.328435 
L 538.987741 -99.359078 
L 549.69344 -58.712727 
L 560.399138 -64.254383 
L 571.104837 -60.394073 
L 581.810536 -88.848781 
L 592.516235 -138.339162 
L 603.221934 -58.712727 
L 613.927632 -76.536503 
L 624.633331 -114.445954 
L 635.33903 -92.060679 
L 646.044729 -60.213121 
L 656.750427 -131.56854 
L 667.456126 -58.712727 
L 678.161825 -98.936857 
L 688.867524 -65.47581 
L 699.573223 -71.665877 
L 710.278921 -92.0456 
L 720.98462 -122.26459 
L 731.690319 -91.269014 
L 742.396018 -182.340665 
L 753.101716 -379.367273 
L 763.807415 -80.6984 
L 774.513114 -145.795894 
L 785.218813 -128.929656 
L 795.924512 -225.497726 
L 806.63021 -151.744692 
L 817.335909 -146.56494 
L 817.335909 -58.712727 
L 817.335909 -58.712727 
L 806.63021 -58.712727 
L 795.924512 -58.712727 
L 785.218813 -58.712727 
L 774.513114 -58.712727 
L 763.807415 -58.712727 
L 753.101716 -58.712727 
L 742.396018 -58.712727 
L 731.690319 -58.712727 
L 720.98462 -58.712727 
L 710.278921 -58.712727 
L 699.573223 -58.712727 
L 688.867524 -58.712727 
L 678.161825 -58.712727 
L 667.456126 -58.712727 
L 656.750427 -58.712727 
L 646.044729 -58.712727 
L 635.33903 -58.712727 
L 624.633331 -58.712727 
L 613.927632 -58.712727 
L 603.221934 -58.712727 
L 592.516235 -58.712727 
L 581.810536 -58.712727 
L 571.104837 -58.712727 
L 560.399138 -58.712727 
L 549.69344 -58.712727 
L 538.987741 -58.712727 
L 528.282042 -58.712727 
L 517.576343 -58.712727 
L 506.870645 -58.712727 
L 496.164946 -58.712727 
L 485.459247 -58.712727 
L 474.753548 -58.712727 
L 464.047849 -58.712727 
L 453.342151 -58.712727 
L 442.636452 -58.712727 
L 431.930753 -58.712727 
L 421.225054 -58.712727 
L 410.519355 -58.712727 
L 399.813657 -58.712727 
L 389.107958 -58.712727 
L 378.402259 -58.712727 
L 367.69656 -58.712727 
L 356.990862 -58.712727 
L 346.285163 -58.712727 
L 335.579464 -58.712727 
L 324.873765 -58.712727 
L 314.168066 -58.712727 
L 303.462368 -58.712727 
L 292.756669 -58.712727 
L 282.05097 -58.712727 
L 271.345271 -58.712727 
L 260.639573 -58.712727 
L 249.933874 -58.712727 
L 239.228175 -58.712727 
L 228.522476 -58.712727 
L 217.816777 -58.712727 
L 207.111079 -58.712727 
L 196.40538 -58.712727 
L 185.699681 -58.712727 
L 174.993982 -58.712727 
L 164.288284 -58.712727 
L 153.582585 -58.712727 
L 142.876886 -58.712727 
L 132.171187 -58.712727 
L 121.465488 -58.712727 
L 110.75979 -58.712727 
L 100.054091 -58.712727 
z
" style="stroke: #e63946; stroke-opacity: 0.1"/>
    </defs>
    <g clip-path="url(#peb46c8322b)">
     <use xlink:href="#mb15c2150ea" x="0" y="432" style="fill: #e63946; fill-opacity: 0.1; stroke: #e63946; stroke-opacity: 0.1"/>
    </g>
   </g>
   <g id="matplotlib.axis_1">
    <g id="xtick_1">
     <g id="line2d_1">
      <path d="M 89.348392 389.32 
L 89.348392 36.6 
" clip-path="url(#peb46c8322b)" style="fill: none; stroke-dasharray: 2.96,1.28; stroke-dashoffset: 0; stroke: #e9ecef; stroke-opacity: 0.7; stroke-width: 0.8"/>
     </g>
     <g id="line2d_2">
      <defs>
       <path id="m2e9e530c18" d="M 0 0 
L 0 3.5 
" style="stroke: #000000; stroke-width: 0.8"/>
      </defs>
      <g>
       <use xlink:href="#m2e9e530c18" x="89.348392" y="389.32" style="stroke: #000000; stroke-width: 0.8"/>
      </g>
     </g>
     <g id="text_1">
      <!-- 0 -->
      <g transform="translate(86.167142 403.918437) scale(0.1 -0.1)">
       <defs>
        <path id="DejaVuSans-30" d="M 2034 4250 
Q 1547 4250 1301 3770 
Q 1056 3291 1056 2328 
Q 1056 1369 1301 889 
Q 1547 409 2034 409 
Q 2525 409 2770 889 
Q 3016 1369 3016 2328 
Q 3016 3291 2770 3770 
Q 2525 4250 2034 4250 
z
M 2034 4750 
Q 2819 4750 3233 4129 
Q 3647 3509 3647 2328 
Q 3647 1150 3233 529 
Q 2819 -91 2034 -91 
Q 1250 -91 836 529 
Q 422 1150 422 2328 
Q 422 3509 836 4129 
Q 1250 4750 2034 4750 
z
" transform="scale(0.015625)"/>
       </defs>
       <use xlink:href="#DejaVuSans-30"/>
      </g>
     </g>
    </g>
    <g id="xtick_2">
     <g id="line2d_3">
      <path d="M 196.40538 389.32 
L 196.40538 36.6 
" clip-path="url(#peb46c8322b)" style="fill: none; stroke-dasharray: 2.96,1.28; stroke-dashoffset: 0; stroke: #e9ecef; stroke-opacity: 0.7; stroke-width: 0.8"/>
     </g>
     <g id="line2d_4">
      <g>
       <use xlink:href="#m2e9e530c18" x="196.40538" y="389.32" style="stroke: #000000; stroke-width: 0.8"/>
      </g>
     </g>
     <g id="text_2">
      <!-- 10 -->
      <g transform="translate(190.04288 403.918437) scale(0.1 -0.1)">
       <defs>
        <path id="DejaVuSans-31" d="M 794 531 
L 1825 531 
L 1825 4091 
L 703 3866 
L 703 4441 
L 1819 4666 
L 2450 4666 
L 2450 531 
L 3481 531 
L 3481 0 
L 794 0 
L 794 531 
z
" transform="scale(0.015625)"/>
       </defs>
       <use xlink:href="#DejaVuSans-31"/>
       <use xlink:href="#DejaVuSans-30" transform="translate(63.623047 0)"/>
      </g>
     </g>
    </g>
    <g id="xtick_3">
     <g id="line2d_5">
      <path d="M 303.462368 389.32 
L 303.462368 36.6 
" clip-path="url(#peb46c8322b)" style="fill: none; stroke-dasharray: 2.96,1.28; stroke-dashoffset: 0; stroke: #e9ecef; stroke-opacity: 0.7; stroke-width: 0.8"/>
     </g>
     <g id="line2d_6">
      <g>
       <use xlink:href="#m2e9e530c18" x="303.462368" y="389.32" style="stroke: #000000; stroke-width: 0.8"/>
      </g>
     </g>
     <g id="text_3">
      <!-- 20 -->
      <g transform="translate(297.099868 403.918437) scale(0.1 -0.1)">
       <defs>
        <path id="DejaVuSans-32" d="M 1228 531 
L 3431 531 
L 3431 0 
L 469 0 
L 469 531 
Q 828 903 1448 1529 
Q 2069 2156 2228 2338 
Q 2531 2678 2651 2914 
Q 2772 3150 2772 3378 
Q 2772 3750 2511 3984 
Q 2250 4219 1831 4219 
Q 1534 4219 1204 4116 
Q 875 4013 500 3803 
L 500 4441 
Q 881 4594 1212 4672 
Q 1544 4750 1819 4750 
Q 2544 4750 2975 4387 
Q 3406 4025 3406 3419 
Q 3406 3131 3298 2873 
Q 3191 2616 2906 2266 
Q 2828 2175 2409 1742 
Q 1991 1309 1228 531 
z
" transform="scale(0.015625)"/>
       </defs>
       <use xlink:href="#DejaVuSans-32"/>
       <use xlink:href="#DejaVuSans-30" transform="translate(63.623047 0)"/>
      </g>
     </g>
    </g>
    <g id="xtick_4">
     <g id="line2d_7">
      <path d="M 410.519355 389.32 
L 410.519355 36.6 
" clip-path="url(#peb46c8322b)" style="fill: none; stroke-dasharray: 2.96,1.28; stroke-dashoffset: 0; stroke: #e9ecef; stroke-opacity: 0.7; stroke-width: 0.8"/>
     </g>
     <g id="line2d_8">
      <g>
       <use xlink:href="#m2e9e530c18" x="410.519355" y="389.32" style="stroke: #000000; stroke-width: 0.8"/>
      </g>
     </g>
     <g id="text_4">
      <!-- 30 -->
      <g transform="translate(404.156855 403.918437) scale(0.1 -0.1)">
       <defs>
        <path id="DejaVuSans-33" d="M 2597 2516 
Q 3050 2419 3304 2112 
Q 3559 1806 3559 1356 
Q 3559 666 3084 287 
Q 2609 -91 1734 -91 
Q 1441 -91 1130 -33 
Q 819 25 488 141 
L 488 750 
Q 750 597 1062 519 
Q 1375 441 1716 441 
Q 2309 441 2620 675 
Q 2931 909 2931 1356 
Q 2931 1769 2642 2001 
Q 2353 2234 1838 2234 
L 1294 2234 
L 1294 2753 
L 1863 2753 
Q 2328 2753 2575 2939 
Q 2822 3125 2822 3475 
Q 2822 3834 2567 4026 
Q 2313 4219 1838 4219 
Q 1578 4219 1281 4162 
Q 984 4106 628 3988 
L 628 4550 
Q 988 4650 1302 4700 
Q 1616 4750 1894 4750 
Q 2613 4750 3031 4423 
Q 3450 4097 3450 3541 
Q 3450 3153 3228 2886 
Q 3006 2619 2597 2516 
z
" transform="scale(0.015625)"/>
       </defs>
       <use xlink:href="#DejaVuSans-33"/>
       <use xlink:href="#DejaVuSans-30" transform="translate(63.623047 0)"/>
      </g>
     </g>
    </g>
    <g id="xtick_5">
     <g id="line2d_9">
      <path d="M 517.576343 389.32 
L 517.576343 36.6 
" clip-path="url(#peb46c8322b)" style="fill: none; stroke-dasharray: 2.96,1.28; stroke-dashoffset: 0; stroke: #e9ecef; stroke-opacity: 0.7; stroke-width: 0.8"/>
     </g>
     <g id="line2d_10">
      <g>
       <use xlink:href="#m2e9e530c18" x="517.576343" y="389.32" style="stroke: #000000; stroke-width: 0.8"/>
      </g>
     </g>
     <g id="text_5">
      <!-- 40 -->
      <g transform="translate(511.213843 403.918437) scale(0.1 -0.1)">
       <defs>
        <path id="DejaVuSans-34" d="M 2419 4116 
L 825 1625 
L 2419 1625 
L 2419 4116 
z
M 2253 4666 
L 3047 4666 
L 3047 1625 
L 3713 1625 
L 3713 1100 
L 3047 1100 
L 3047 0 
L 2419 0 
L 2419 1100 
L 313 1100 
L 313 1709 
L 2253 4666 
z
" transform="scale(0.015625)"/>
       </defs>
       <use xlink:href="#DejaVuSans-34"/>
       <use xlink:href="#DejaVuSans-30" transform="translate(63.623047 0)"/>
      </g>
     </g>
    </g>
    <g id="xtick_6">
     <g id="line2d_11">
      <path d="M 624.633331 389.32 
L 624.633331 36.6 
" clip-path="url(#peb46c8322b)" style="fill: none; stroke-dasharray: 2.96,1.28; stroke-dashoffset: 0; stroke: #e9ecef; stroke-opacity: 0.7; stroke-width: 0.8"/>
     </g>
     <g id="line2d_12">
      <g>
       <use xlink:href="#m2e9e530c18" x="624.633331" y="389.32" style="stroke: #000000; stroke-width: 0.8"/>
      </g>
     </g>
     <g id="text_6">
      <!-- 50 -->
      <g transform="translate(618.270831 403.918437) scale(0.1 -0.1)">
       <defs>
        <path id="DejaVuSans-35" d="M 691 4666 
L 3169 4666 
L 3169 4134 
L 1269 4134 
L 1269 2991 
Q 1406 3038 1543 3061 
Q 1681 3084 1819 3084 
Q 2600 3084 3056 2656 
Q 3513 2228 3513 1497 
Q 3513 744 3044 326 
Q 2575 -91 1722 -91 
Q 1428 -91 1123 -41 
Q 819 9 494 109 
L 494 744 
Q 775 591 1075 516 
Q 1375 441 1709 441 
Q 2250 441 2565 725 
Q 2881 1009 2881 1497 
Q 2881 1984 2565 2268 
Q 2250 2553 1709 2553 
Q 1456 2553 1204 2497 
Q 953 2441 691 2322 
L 691 4666 
z
" transform="scale(0.015625)"/>
       </defs>
       <use xlink:href="#DejaVuSans-35"/>
       <use xlink:href="#DejaVuSans-30" transform="translate(63.623047 0)"/>
      </g>
     </g>
    </g>
    <g id="xtick_7">
     <g id="line2d_13">
      <path d="M 731.690319 389.32 
L 731.690319 36.6 
" clip-path="url(#peb46c8322b)" style="fill: none; stroke-dasharray: 2.96,1.28; stroke-dashoffset: 0; stroke: #e9ecef; stroke-opacity: 0.7; stroke-width: 0.8"/>
     </g>
     <g id="line2d_14">
      <g>
       <use xlink:href="#m2e9e530c18" x="731.690319" y="389.32" style="stroke: #000000; stroke-width: 0.8"/>
      </g>
     </g>
     <g id="text_7">
      <!-- 60 -->
      <g transform="translate(725.327819 403.918437) scale(0.1 -0.1)">
       <defs>
        <path id="DejaVuSans-36" d="M 2113 2584 
Q 1688 2584 1439 2293 
Q 1191 2003 1191 1497 
Q 1191 994 1439 701 
Q 1688 409 2113 409 
Q 2538 409 2786 701 
Q 3034 994 3034 1497 
Q 3034 2003 2786 2293 
Q 2538 2584 2113 2584 
z
M 3366 4563 
L 3366 3988 
Q 3128 4100 2886 4159 
Q 2644 4219 2406 4219 
Q 1781 4219 1451 3797 
Q 1122 3375 1075 2522 
Q 1259 2794 1537 2939 
Q 1816 3084 2150 3084 
Q 2853 3084 3261 2657 
Q 3669 2231 3669 1497 
Q 3669 778 3244 343 
Q 2819 -91 2113 -91 
Q 1303 -91 875 529 
Q 447 1150 447 2328 
Q 447 3434 972 4092 
Q 1497 4750 2381 4750 
Q 2619 4750 2861 4703 
Q 3103 4656 3366 4563 
z
" transform="scale(0.015625)"/>
       </defs>
       <use xlink:href="#DejaVuSans-36"/>
       <use xlink:href="#DejaVuSans-30" transform="translate(63.623047 0)"/>
      </g>
     </g>
    </g>
    <g id="xtick_8">
     <g id="line2d_15">
      <path d="M 838.747307 389.32 
L 838.747307 36.6 
" clip-path="url(#peb46c8322b)" style="fill: none; stroke-dasharray: 2.96,1.28; stroke-dashoffset: 0; stroke: #e9ecef; stroke-opacity: 0.7; stroke-width: 0.8"/>
     </g>
     <g id="line2d_16">
      <g>
       <use xlink:href="#m2e9e530c18" x="838.747307" y="389.32" style="stroke: #000000; stroke-width: 0.8"/>
      </g>
     </g>
     <g id="text_8">
      <!-- 70 -->
      <g transform="translate(832.384807 403.918437) scale(0.1 -0.1)">
       <defs>
        <path id="DejaVuSans-37" d="M 525 4666 
L 3525 4666 
L 3525 4397 
L 1831 0 
L 1172 0 
L 2766 4134 
L 525 4134 
L 525 4666 
z
" transform="scale(0.015625)"/>
       </defs>
       <use xlink:href="#DejaVuSans-37"/>
       <use xlink:href="#DejaVuSans-30" transform="translate(63.623047 0)"/>
      </g>
     </g>
    </g>
    <g id="text_9">
     <!-- Blog Post Index (Articles) -->
     <g transform="translate(389.845312 418.356406) scale(0.11 -0.11)">
      <defs>
       <path id="DejaVuSans-42" d="M 1259 2228 
L 1259 519 
L 2272 519 
Q 2781 519 3026 730 
Q 3272 941 3272 1375 
Q 3272 1813 3026 2020 
Q 2781 2228 2272 2228 
L 1259 2228 
z
M 1259 4147 
L 1259 2741 
L 2194 2741 
Q 2656 2741 2882 2914 
Q 3109 3088 3109 3444 
Q 3109 3797 2882 3972 
Q 2656 4147 2194 4147 
L 1259 4147 
z
M 628 4666 
L 2241 4666 
Q 2963 4666 3353 4366 
Q 3744 4066 3744 3513 
Q 3744 3084 3544 2831 
Q 3344 2578 2956 2516 
Q 3422 2416 3680 2098 
Q 3938 1781 3938 1306 
Q 3938 681 3513 340 
Q 3088 0 2303 0 
L 628 0 
L 628 4666 
z
" transform="scale(0.015625)"/>
       <path id="DejaVuSans-6c" d="M 603 4863 
L 1178 4863 
L 1178 0 
L 603 0 
L 603 4863 
z
" transform="scale(0.015625)"/>
       <path id="DejaVuSans-6f" d="M 1959 3097 
Q 1497 3097 1228 2736 
Q 959 2375 959 1747 
Q 959 1119 1226 758 
Q 1494 397 1959 397 
Q 2419 397 2687 759 
Q 2956 1122 2956 1747 
Q 2956 2369 2687 2733 
Q 2419 3097 1959 3097 
z
M 1959 3584 
Q 2709 3584 3137 3096 
Q 3566 2609 3566 1747 
Q 3566 888 3137 398 
Q 2709 -91 1959 -91 
Q 1206 -91 779 398 
Q 353 888 353 1747 
Q 353 2609 779 3096 
Q 1206 3584 1959 3584 
z
" transform="scale(0.015625)"/>
       <path id="DejaVuSans-67" d="M 2906 1791 
Q 2906 2416 2648 2759 
Q 2391 3103 1925 3103 
Q 1463 3103 1205 2759 
Q 947 2416 947 1791 
Q 947 1169 1205 825 
Q 1463 481 1925 481 
Q 2391 481 2648 825 
Q 2906 1169 2906 1791 
z
M 3481 434 
Q 3481 -459 3084 -895 
Q 2688 -1331 1869 -1331 
Q 1566 -1331 1297 -1286 
Q 1028 -1241 775 -1147 
L 775 -588 
Q 1028 -725 1275 -790 
Q 1522 -856 1778 -856 
Q 2344 -856 2625 -561 
Q 2906 -266 2906 331 
L 2906 616 
Q 2728 306 2450 153 
Q 2172 0 1784 0 
Q 1141 0 747 490 
Q 353 981 353 1791 
Q 353 2603 747 3093 
Q 1141 3584 1784 3584 
Q 2172 3584 2450 3431 
Q 2728 3278 2906 2969 
L 2906 3500 
L 3481 3500 
L 3481 434 
z
" transform="scale(0.015625)"/>
       <path id="DejaVuSans-20" transform="scale(0.015625)"/>
       <path id="DejaVuSans-50" d="M 1259 4147 
L 1259 2394 
L 2053 2394 
Q 2494 2394 2734 2622 
Q 2975 2850 2975 3272 
Q 2975 3691 2734 3919 
Q 2494 4147 2053 4147 
L 1259 4147 
z
M 628 4666 
L 2053 4666 
Q 2838 4666 3239 4311 
Q 3641 3956 3641 3272 
Q 3641 2581 3239 2228 
Q 2838 1875 2053 1875 
L 1259 1875 
L 1259 0 
L 628 0 
L 628 4666 
z
" transform="scale(0.015625)"/>
       <path id="DejaVuSans-73" d="M 2834 3397 
L 2834 2853 
Q 2591 2978 2328 3040 
Q 2066 3103 1784 3103 
Q 1356 3103 1142 2972 
Q 928 2841 928 2578 
Q 928 2378 1081 2264 
Q 1234 2150 1697 2047 
L 1894 2003 
Q 2506 1872 2764 1633 
Q 3022 1394 3022 966 
Q 3022 478 2636 193 
Q 2250 -91 1575 -91 
Q 1294 -91 989 -36 
Q 684 19 347 128 
L 347 722 
Q 666 556 975 473 
Q 1284 391 1588 391 
Q 1994 391 2212 530 
Q 2431 669 2431 922 
Q 2431 1156 2273 1281 
Q 2116 1406 1581 1522 
L 1381 1569 
Q 847 1681 609 1914 
Q 372 2147 372 2553 
Q 372 3047 722 3315 
Q 1072 3584 1716 3584 
Q 2034 3584 2315 3537 
Q 2597 3491 2834 3397 
z
" transform="scale(0.015625)"/>
       <path id="DejaVuSans-74" d="M 1172 4494 
L 1172 3500 
L 2356 3500 
L 2356 3053 
L 1172 3053 
L 1172 1153 
Q 1172 725 1289 603 
Q 1406 481 1766 481 
L 2356 481 
L 2356 0 
L 1766 0 
Q 1100 0 847 248 
Q 594 497 594 1153 
L 594 3053 
L 172 3053 
L 172 3500 
L 594 3500 
L 594 4494 
L 1172 4494 
z
" transform="scale(0.015625)"/>
       <path id="DejaVuSans-49" d="M 628 4666 
L 1259 4666 
L 1259 0 
L 628 0 
L 628 4666 
z
" transform="scale(0.015625)"/>
       <path id="DejaVuSans-6e" d="M 3513 2113 
L 3513 0 
L 2938 0 
L 2938 2094 
Q 2938 2591 2744 2837 
Q 2550 3084 2163 3084 
Q 1697 3084 1428 2787 
Q 1159 2491 1159 1978 
L 1159 0 
L 581 0 
L 581 3500 
L 1159 3500 
L 1159 2956 
Q 1366 3272 1645 3428 
Q 1925 3584 2291 3584 
Q 2894 3584 3203 3211 
Q 3513 2838 3513 2113 
z
" transform="scale(0.015625)"/>
       <path id="DejaVuSans-64" d="M 2906 2969 
L 2906 4863 
L 3481 4863 
L 3481 0 
L 2906 0 
L 2906 525 
Q 2725 213 2448 61 
Q 2172 -91 1784 -91 
Q 1150 -91 751 415 
Q 353 922 353 1747 
Q 353 2572 751 3078 
Q 1150 3584 1784 3584 
Q 2172 3584 2448 3432 
Q 2725 3281 2906 2969 
z
M 947 1747 
Q 947 1113 1208 752 
Q 1469 391 1925 391 
Q 2381 391 2643 752 
Q 2906 1113 2906 1747 
Q 2906 2381 2643 2742 
Q 2381 3103 1925 3103 
Q 1469 3103 1208 2742 
Q 947 2381 947 1747 
z
" transform="scale(0.015625)"/>
       <path id="DejaVuSans-65" d="M 3597 1894 
L 3597 1613 
L 953 1613 
Q 991 1019 1311 708 
Q 1631 397 2203 397 
Q 2534 397 2845 478 
Q 3156 559 3463 722 
L 3463 178 
Q 3153 47 2828 -22 
Q 2503 -91 2169 -91 
Q 1331 -91 842 396 
Q 353 884 353 1716 
Q 353 2575 817 3079 
Q 1281 3584 2069 3584 
Q 2775 3584 3186 3129 
Q 3597 2675 3597 1894 
z
M 3022 2063 
Q 3016 2534 2758 2815 
Q 2500 3097 2075 3097 
Q 1594 3097 1305 2825 
Q 1016 2553 972 2059 
L 3022 2063 
z
" transform="scale(0.015625)"/>
       <path id="DejaVuSans-78" d="M 3513 3500 
L 2247 1797 
L 3578 0 
L 2900 0 
L 1881 1375 
L 863 0 
L 184 0 
L 1544 1831 
L 300 3500 
L 978 3500 
L 1906 2253 
L 2834 3500 
L 3513 3500 
z
" transform="scale(0.015625)"/>
       <path id="DejaVuSans-28" d="M 1984 4856 
Q 1566 4138 1362 3434 
Q 1159 2731 1159 2009 
Q 1159 1288 1364 580 
Q 1569 -128 1984 -844 
L 1484 -844 
Q 1016 -109 783 600 
Q 550 1309 550 2009 
Q 550 2706 781 3412 
Q 1013 4119 1484 4856 
L 1984 4856 
z
" transform="scale(0.015625)"/>
       <path id="DejaVuSans-41" d="M 2188 4044 
L 1331 1722 
L 3047 1722 
L 2188 4044 
z
M 1831 4666 
L 2547 4666 
L 4325 0 
L 3669 0 
L 3244 1197 
L 1141 1197 
L 716 0 
L 50 0 
L 1831 4666 
z
" transform="scale(0.015625)"/>
       <path id="DejaVuSans-72" d="M 2631 2963 
Q 2534 3019 2420 3045 
Q 2306 3072 2169 3072 
Q 1681 3072 1420 2755 
Q 1159 2438 1159 1844 
L 1159 0 
L 581 0 
L 581 3500 
L 1159 3500 
L 1159 2956 
Q 1341 3275 1631 3429 
Q 1922 3584 2338 3584 
Q 2397 3584 2469 3576 
Q 2541 3569 2628 3553 
L 2631 2963 
z
" transform="scale(0.015625)"/>
       <path id="DejaVuSans-69" d="M 603 3500 
L 1178 3500 
L 1178 0 
L 603 0 
L 603 3500 
z
M 603 4863 
L 1178 4863 
L 1178 4134 
L 603 4134 
L 603 4863 
z
" transform="scale(0.015625)"/>
       <path id="DejaVuSans-63" d="M 3122 3366 
L 3122 2828 
Q 2878 2963 2633 3030 
Q 2388 3097 2138 3097 
Q 1578 3097 1268 2742 
Q 959 2388 959 1747 
Q 959 1106 1268 751 
Q 1578 397 2138 397 
Q 2388 397 2633 464 
Q 2878 531 3122 666 
L 3122 134 
Q 2881 22 2623 -34 
Q 2366 -91 2075 -91 
Q 1284 -91 818 406 
Q 353 903 353 1747 
Q 353 2603 823 3093 
Q 1294 3584 2113 3584 
Q 2378 3584 2631 3529 
Q 2884 3475 3122 3366 
z
" transform="scale(0.015625)"/>
       <path id="DejaVuSans-29" d="M 513 4856 
L 1013 4856 
Q 1481 4119 1714 3412 
Q 1947 2706 1947 2009 
Q 1947 1309 1714 600 
Q 1481 -109 1013 -844 
L 513 -844 
Q 928 -128 1133 580 
Q 1338 1288 1338 2009 
Q 1338 2731 1133 3434 
Q 928 4138 513 4856 
z
" transform="scale(0.015625)"/>
      </defs>
      <use xlink:href="#DejaVuSans-42"/>
      <use xlink:href="#DejaVuSans-6c" transform="translate(68.603516 0)"/>
      <use xlink:href="#DejaVuSans-6f" transform="translate(96.386719 0)"/>
      <use xlink:href="#DejaVuSans-67" transform="translate(157.568359 0)"/>
      <use xlink:href="#DejaVuSans-20" transform="translate(221.044922 0)"/>
      <use xlink:href="#DejaVuSans-50" transform="translate(252.832031 0)"/>
      <use xlink:href="#DejaVuSans-6f" transform="translate(309.509766 0)"/>
      <use xlink:href="#DejaVuSans-73" transform="translate(370.691406 0)"/>
      <use xlink:href="#DejaVuSans-74" transform="translate(422.791016 0)"/>
      <use xlink:href="#DejaVuSans-20" transform="translate(462 0)"/>
      <use xlink:href="#DejaVuSans-49" transform="translate(493.787109 0)"/>
      <use xlink:href="#DejaVuSans-6e" transform="translate(523.279297 0)"/>
      <use xlink:href="#DejaVuSans-64" transform="translate(586.658203 0)"/>
      <use xlink:href="#DejaVuSans-65" transform="translate(650.134766 0)"/>
      <use xlink:href="#DejaVuSans-78" transform="translate(709.908203 0)"/>
      <use xlink:href="#DejaVuSans-20" transform="translate(769.087891 0)"/>
      <use xlink:href="#DejaVuSans-28" transform="translate(800.875 0)"/>
      <use xlink:href="#DejaVuSans-41" transform="translate(839.888672 0)"/>
      <use xlink:href="#DejaVuSans-72" transform="translate(908.296875 0)"/>
      <use xlink:href="#DejaVuSans-74" transform="translate(949.410156 0)"/>
      <use xlink:href="#DejaVuSans-69" transform="translate(988.619141 0)"/>
      <use xlink:href="#DejaVuSans-63" transform="translate(1016.402344 0)"/>
      <use xlink:href="#DejaVuSans-6c" transform="translate(1071.382812 0)"/>
      <use xlink:href="#DejaVuSans-65" transform="translate(1099.166016 0)"/>
      <use xlink:href="#DejaVuSans-73" transform="translate(1160.689453 0)"/>
      <use xlink:href="#DejaVuSans-29" transform="translate(1212.789062 0)"/>
     </g>
    </g>
   </g>
   <g id="matplotlib.axis_2">
    <g id="ytick_1">
     <g id="line2d_17">
      <path d="M 64.19 373.287273 
L 853.2 373.287273 
" clip-path="url(#peb46c8322b)" style="fill: none; stroke-dasharray: 2.96,1.28; stroke-dashoffset: 0; stroke: #e9ecef; stroke-opacity: 0.7; stroke-width: 0.8"/>
     </g>
     <g id="line2d_18">
      <defs>
       <path id="m57ceec3407" d="M 0 0 
L -3.5 0 
" style="stroke: #000000; stroke-width: 0.8"/>
      </defs>
      <g>
       <use xlink:href="#m57ceec3407" x="64.19" y="373.287273" style="stroke: #000000; stroke-width: 0.8"/>
      </g>
     </g>
     <g id="text_10">
      <!-- 0 -->
      <g transform="translate(50.8275 377.086491) scale(0.1 -0.1)">
       <use xlink:href="#DejaVuSans-30"/>
      </g>
     </g>
    </g>
    <g id="ytick_2">
     <g id="line2d_19">
      <path d="M 64.19 297.890592 
L 853.2 297.890592 
" clip-path="url(#peb46c8322b)" style="fill: none; stroke-dasharray: 2.96,1.28; stroke-dashoffset: 0; stroke: #e9ecef; stroke-opacity: 0.7; stroke-width: 0.8"/>
     </g>
     <g id="line2d_20">
      <g>
       <use xlink:href="#m57ceec3407" x="64.19" y="297.890592" style="stroke: #000000; stroke-width: 0.8"/>
      </g>
     </g>
     <g id="text_11">
      <!-- 10000 -->
      <g transform="translate(25.3775 301.68981) scale(0.1 -0.1)">
       <use xlink:href="#DejaVuSans-31"/>
       <use xlink:href="#DejaVuSans-30" transform="translate(63.623047 0)"/>
       <use xlink:href="#DejaVuSans-30" transform="translate(127.246094 0)"/>
       <use xlink:href="#DejaVuSans-30" transform="translate(190.869141 0)"/>
       <use xlink:href="#DejaVuSans-30" transform="translate(254.492188 0)"/>
      </g>
     </g>
    </g>
    <g id="ytick_3">
     <g id="line2d_21">
      <path d="M 64.19 222.49391 
L 853.2 222.49391 
" clip-path="url(#peb46c8322b)" style="fill: none; stroke-dasharray: 2.96,1.28; stroke-dashoffset: 0; stroke: #e9ecef; stroke-opacity: 0.7; stroke-width: 0.8"/>
     </g>
     <g id="line2d_22">
      <g>
       <use xlink:href="#m57ceec3407" x="64.19" y="222.49391" style="stroke: #000000; stroke-width: 0.8"/>
      </g>
     </g>
     <g id="text_12">
      <!-- 20000 -->
      <g transform="translate(25.3775 226.293129) scale(0.1 -0.1)">
       <use xlink:href="#DejaVuSans-32"/>
       <use xlink:href="#DejaVuSans-30" transform="translate(63.623047 0)"/>
       <use xlink:href="#DejaVuSans-30" transform="translate(127.246094 0)"/>
       <use xlink:href="#DejaVuSans-30" transform="translate(190.869141 0)"/>
       <use xlink:href="#DejaVuSans-30" transform="translate(254.492188 0)"/>
      </g>
     </g>
    </g>
    <g id="ytick_4">
     <g id="line2d_23">
      <path d="M 64.19 147.097229 
L 853.2 147.097229 
" clip-path="url(#peb46c8322b)" style="fill: none; stroke-dasharray: 2.96,1.28; stroke-dashoffset: 0; stroke: #e9ecef; stroke-opacity: 0.7; stroke-width: 0.8"/>
     </g>
     <g id="line2d_24">
      <g>
       <use xlink:href="#m57ceec3407" x="64.19" y="147.097229" style="stroke: #000000; stroke-width: 0.8"/>
      </g>
     </g>
     <g id="text_13">
      <!-- 30000 -->
      <g transform="translate(25.3775 150.896448) scale(0.1 -0.1)">
       <use xlink:href="#DejaVuSans-33"/>
       <use xlink:href="#DejaVuSans-30" transform="translate(63.623047 0)"/>
       <use xlink:href="#DejaVuSans-30" transform="translate(127.246094 0)"/>
       <use xlink:href="#DejaVuSans-30" transform="translate(190.869141 0)"/>
       <use xlink:href="#DejaVuSans-30" transform="translate(254.492188 0)"/>
      </g>
     </g>
    </g>
    <g id="ytick_5">
     <g id="line2d_25">
      <path d="M 64.19 71.700548 
L 853.2 71.700548 
" clip-path="url(#peb46c8322b)" style="fill: none; stroke-dasharray: 2.96,1.28; stroke-dashoffset: 0; stroke: #e9ecef; stroke-opacity: 0.7; stroke-width: 0.8"/>
     </g>
     <g id="line2d_26">
      <g>
       <use xlink:href="#m57ceec3407" x="64.19" y="71.700548" style="stroke: #000000; stroke-width: 0.8"/>
      </g>
     </g>
     <g id="text_14">
      <!-- 40000 -->
      <g transform="translate(25.3775 75.499767) scale(0.1 -0.1)">
       <use xlink:href="#DejaVuSans-34"/>
       <use xlink:href="#DejaVuSans-30" transform="translate(63.623047 0)"/>
       <use xlink:href="#DejaVuSans-30" transform="translate(127.246094 0)"/>
       <use xlink:href="#DejaVuSans-30" transform="translate(190.869141 0)"/>
       <use xlink:href="#DejaVuSans-30" transform="translate(254.492188 0)"/>
      </g>
     </g>
    </g>
    <g id="text_15">
     <!-- Character Count -->
     <g transform="translate(19.089844 258.194922) rotate(-90) scale(0.11 -0.11)">
      <defs>
       <path id="DejaVuSans-43" d="M 4122 4306 
L 4122 3641 
Q 3803 3938 3442 4084 
Q 3081 4231 2675 4231 
Q 1875 4231 1450 3742 
Q 1025 3253 1025 2328 
Q 1025 1406 1450 917 
Q 1875 428 2675 428 
Q 3081 428 3442 575 
Q 3803 722 4122 1019 
L 4122 359 
Q 3791 134 3420 21 
Q 3050 -91 2638 -91 
Q 1578 -91 968 557 
Q 359 1206 359 2328 
Q 359 3453 968 4101 
Q 1578 4750 2638 4750 
Q 3056 4750 3426 4639 
Q 3797 4528 4122 4306 
z
" transform="scale(0.015625)"/>
       <path id="DejaVuSans-68" d="M 3513 2113 
L 3513 0 
L 2938 0 
L 2938 2094 
Q 2938 2591 2744 2837 
Q 2550 3084 2163 3084 
Q 1697 3084 1428 2787 
Q 1159 2491 1159 1978 
L 1159 0 
L 581 0 
L 581 4863 
L 1159 4863 
L 1159 2956 
Q 1366 3272 1645 3428 
Q 1925 3584 2291 3584 
Q 2894 3584 3203 3211 
Q 3513 2838 3513 2113 
z
" transform="scale(0.015625)"/>
       <path id="DejaVuSans-61" d="M 2194 1759 
Q 1497 1759 1228 1600 
Q 959 1441 959 1056 
Q 959 750 1161 570 
Q 1363 391 1709 391 
Q 2188 391 2477 730 
Q 2766 1069 2766 1631 
L 2766 1759 
L 2194 1759 
z
M 3341 1997 
L 3341 0 
L 2766 0 
L 2766 531 
Q 2569 213 2275 61 
Q 1981 -91 1556 -91 
Q 1019 -91 701 211 
Q 384 513 384 1019 
Q 384 1609 779 1909 
Q 1175 2209 1959 2209 
L 2766 2209 
L 2766 2266 
Q 2766 2663 2505 2880 
Q 2244 3097 1772 3097 
Q 1472 3097 1187 3025 
Q 903 2953 641 2809 
L 641 3341 
Q 956 3463 1253 3523 
Q 1550 3584 1831 3584 
Q 2591 3584 2966 3190 
Q 3341 2797 3341 1997 
z
" transform="scale(0.015625)"/>
       <path id="DejaVuSans-75" d="M 544 1381 
L 544 3500 
L 1119 3500 
L 1119 1403 
Q 1119 906 1312 657 
Q 1506 409 1894 409 
Q 2359 409 2629 706 
Q 2900 1003 2900 1516 
L 2900 3500 
L 3475 3500 
L 3475 0 
L 2900 0 
L 2900 538 
Q 2691 219 2414 64 
Q 2138 -91 1772 -91 
Q 1169 -91 856 284 
Q 544 659 544 1381 
z
M 1991 3584 
L 1991 3584 
z
" transform="scale(0.015625)"/>
      </defs>
      <use xlink:href="#DejaVuSans-43"/>
      <use xlink:href="#DejaVuSans-68" transform="translate(69.824219 0)"/>
      <use xlink:href="#DejaVuSans-61" transform="translate(133.203125 0)"/>
      <use xlink:href="#DejaVuSans-72" transform="translate(194.482422 0)"/>
      <use xlink:href="#DejaVuSans-61" transform="translate(235.595703 0)"/>
      <use xlink:href="#DejaVuSans-63" transform="translate(296.875 0)"/>
      <use xlink:href="#DejaVuSans-74" transform="translate(351.855469 0)"/>
      <use xlink:href="#DejaVuSans-65" transform="translate(391.064453 0)"/>
      <use xlink:href="#DejaVuSans-72" transform="translate(452.587891 0)"/>
      <use xlink:href="#DejaVuSans-20" transform="translate(493.701172 0)"/>
      <use xlink:href="#DejaVuSans-43" transform="translate(525.488281 0)"/>
      <use xlink:href="#DejaVuSans-6f" transform="translate(595.3125 0)"/>
      <use xlink:href="#DejaVuSans-75" transform="translate(656.494141 0)"/>
      <use xlink:href="#DejaVuSans-6e" transform="translate(719.873047 0)"/>
      <use xlink:href="#DejaVuSans-74" transform="translate(783.251953 0)"/>
     </g>
    </g>
   </g>
   <g id="line2d_27">
    <path d="M 100.054091 314.704051 
L 110.75979 291.904095 
L 121.465488 313.678657 
L 132.171187 302.640582 
L 142.876886 249.478383 
L 153.582585 333.14608 
L 164.288284 359.451982 
L 174.993982 364.458321 
L 185.699681 351.76906 
L 196.40538 339.524639 
L 207.111079 326.398077 
L 217.816777 351.723822 
L 228.522476 340.255987 
L 239.228175 294.693772 
L 249.933874 360.17579 
L 260.639573 337.963928 
L 271.345271 353.382549 
L 282.05097 342.721458 
L 292.756669 237.761738 
L 303.462368 325.855221 
L 314.168066 299.896143 
L 324.873765 313.188578 
L 335.579464 332.173462 
L 346.285163 361.691263 
L 356.990862 277.443012 
L 367.69656 350.283745 
L 378.402259 345.827801 
L 389.107958 324.829826 
L 399.813657 364.594035 
L 410.519355 331.268702 
L 421.225054 330.854021 
L 431.930753 358.11746 
L 442.636452 345.194469 
L 453.342151 312.781436 
L 464.047849 269.594217 
L 474.753548 240.249829 
L 485.459247 333.884967 
L 496.164946 261.692645 
L 506.870645 341.861936 
L 517.576343 312.133025 
L 528.282042 328.403628 
L 538.987741 335.762344 
L 549.69344 360.718646 
L 560.399138 354.068659 
L 571.104837 351.957552 
L 581.810536 289.875924 
L 592.516235 271.546991 
L 603.221934 322.854433 
L 613.927632 329.640134 
L 624.633331 298.644558 
L 635.33903 300.552094 
L 646.044729 359.376585 
L 656.750427 326.375458 
L 667.456126 352.847232 
L 678.161825 299.609636 
L 688.867524 353.450406 
L 699.573223 354.505959 
L 710.278921 342.095666 
L 720.98462 288.345372 
L 731.690319 332.580605 
L 742.396018 240.574034 
L 753.101716 196.715785 
L 763.807415 313.904847 
L 774.513114 244.615297 
L 785.218813 288.352911 
L 795.924512 250.880761 
L 806.63021 282.313637 
L 817.335909 311.967152 
" clip-path="url(#peb46c8322b)" style="fill: none; stroke: #1d3557; stroke-width: 2.2; stroke-linecap: square"/>
    <defs>
     <path id="mf199bd6526" d="M 0 1.5 
C 0.397805 1.5 0.77937 1.341951 1.06066 1.06066 
C 1.341951 0.77937 1.5 0.397805 1.5 0 
C 1.5 -0.397805 1.341951 -0.77937 1.06066 -1.06066 
C 0.77937 -1.341951 0.397805 -1.5 0 -1.5 
C -0.397805 -1.5 -0.77937 -1.341951 -1.06066 -1.06066 
C -1.341951 -0.77937 -1.5 -0.397805 -1.5 0 
C -1.5 0.397805 -1.341951 0.77937 -1.06066 1.06066 
C -0.77937 1.341951 -0.397805 1.5 0 1.5 
z
" style="stroke: #1d3557"/>
    </defs>
    <g clip-path="url(#peb46c8322b)">
     <use xlink:href="#mf199bd6526" x="100.054091" y="314.704051" style="fill: #1d3557; stroke: #1d3557"/>
     <use xlink:href="#mf199bd6526" x="110.75979" y="291.904095" style="fill: #1d3557; stroke: #1d3557"/>
     <use xlink:href="#mf199bd6526" x="121.465488" y="313.678657" style="fill: #1d3557; stroke: #1d3557"/>
     <use xlink:href="#mf199bd6526" x="132.171187" y="302.640582" style="fill: #1d3557; stroke: #1d3557"/>
     <use xlink:href="#mf199bd6526" x="142.876886" y="249.478383" style="fill: #1d3557; stroke: #1d3557"/>
     <use xlink:href="#mf199bd6526" x="153.582585" y="333.14608" style="fill: #1d3557; stroke: #1d3557"/>
     <use xlink:href="#mf199bd6526" x="164.288284" y="359.451982" style="fill: #1d3557; stroke: #1d3557"/>
     <use xlink:href="#mf199bd6526" x="174.993982" y="364.458321" style="fill: #1d3557; stroke: #1d3557"/>
     <use xlink:href="#mf199bd6526" x="185.699681" y="351.76906" style="fill: #1d3557; stroke: #1d3557"/>
     <use xlink:href="#mf199bd6526" x="196.40538" y="339.524639" style="fill: #1d3557; stroke: #1d3557"/>
     <use xlink:href="#mf199bd6526" x="207.111079" y="326.398077" style="fill: #1d3557; stroke: #1d3557"/>
     <use xlink:href="#mf199bd6526" x="217.816777" y="351.723822" style="fill: #1d3557; stroke: #1d3557"/>
     <use xlink:href="#mf199bd6526" x="228.522476" y="340.255987" style="fill: #1d3557; stroke: #1d3557"/>
     <use xlink:href="#mf199bd6526" x="239.228175" y="294.693772" style="fill: #1d3557; stroke: #1d3557"/>
     <use xlink:href="#mf199bd6526" x="249.933874" y="360.17579" style="fill: #1d3557; stroke: #1d3557"/>
     <use xlink:href="#mf199bd6526" x="260.639573" y="337.963928" style="fill: #1d3557; stroke: #1d3557"/>
     <use xlink:href="#mf199bd6526" x="271.345271" y="353.382549" style="fill: #1d3557; stroke: #1d3557"/>
     <use xlink:href="#mf199bd6526" x="282.05097" y="342.721458" style="fill: #1d3557; stroke: #1d3557"/>
     <use xlink:href="#mf199bd6526" x="292.756669" y="237.761738" style="fill: #1d3557; stroke: #1d3557"/>
     <use xlink:href="#mf199bd6526" x="303.462368" y="325.855221" style="fill: #1d3557; stroke: #1d3557"/>
     <use xlink:href="#mf199bd6526" x="314.168066" y="299.896143" style="fill: #1d3557; stroke: #1d3557"/>
     <use xlink:href="#mf199bd6526" x="324.873765" y="313.188578" style="fill: #1d3557; stroke: #1d3557"/>
     <use xlink:href="#mf199bd6526" x="335.579464" y="332.173462" style="fill: #1d3557; stroke: #1d3557"/>
     <use xlink:href="#mf199bd6526" x="346.285163" y="361.691263" style="fill: #1d3557; stroke: #1d3557"/>
     <use xlink:href="#mf199bd6526" x="356.990862" y="277.443012" style="fill: #1d3557; stroke: #1d3557"/>
     <use xlink:href="#mf199bd6526" x="367.69656" y="350.283745" style="fill: #1d3557; stroke: #1d3557"/>
     <use xlink:href="#mf199bd6526" x="378.402259" y="345.827801" style="fill: #1d3557; stroke: #1d3557"/>
     <use xlink:href="#mf199bd6526" x="389.107958" y="324.829826" style="fill: #1d3557; stroke: #1d3557"/>
     <use xlink:href="#mf199bd6526" x="399.813657" y="364.594035" style="fill: #1d3557; stroke: #1d3557"/>
     <use xlink:href="#mf199bd6526" x="410.519355" y="331.268702" style="fill: #1d3557; stroke: #1d3557"/>
     <use xlink:href="#mf199bd6526" x="421.225054" y="330.854021" style="fill: #1d3557; stroke: #1d3557"/>
     <use xlink:href="#mf199bd6526" x="431.930753" y="358.11746" style="fill: #1d3557; stroke: #1d3557"/>
     <use xlink:href="#mf199bd6526" x="442.636452" y="345.194469" style="fill: #1d3557; stroke: #1d3557"/>
     <use xlink:href="#mf199bd6526" x="453.342151" y="312.781436" style="fill: #1d3557; stroke: #1d3557"/>
     <use xlink:href="#mf199bd6526" x="464.047849" y="269.594217" style="fill: #1d3557; stroke: #1d3557"/>
     <use xlink:href="#mf199bd6526" x="474.753548" y="240.249829" style="fill: #1d3557; stroke: #1d3557"/>
     <use xlink:href="#mf199bd6526" x="485.459247" y="333.884967" style="fill: #1d3557; stroke: #1d3557"/>
     <use xlink:href="#mf199bd6526" x="496.164946" y="261.692645" style="fill: #1d3557; stroke: #1d3557"/>
     <use xlink:href="#mf199bd6526" x="506.870645" y="341.861936" style="fill: #1d3557; stroke: #1d3557"/>
     <use xlink:href="#mf199bd6526" x="517.576343" y="312.133025" style="fill: #1d3557; stroke: #1d3557"/>
     <use xlink:href="#mf199bd6526" x="528.282042" y="328.403628" style="fill: #1d3557; stroke: #1d3557"/>
     <use xlink:href="#mf199bd6526" x="538.987741" y="335.762344" style="fill: #1d3557; stroke: #1d3557"/>
     <use xlink:href="#mf199bd6526" x="549.69344" y="360.718646" style="fill: #1d3557; stroke: #1d3557"/>
     <use xlink:href="#mf199bd6526" x="560.399138" y="354.068659" style="fill: #1d3557; stroke: #1d3557"/>
     <use xlink:href="#mf199bd6526" x="571.104837" y="351.957552" style="fill: #1d3557; stroke: #1d3557"/>
     <use xlink:href="#mf199bd6526" x="581.810536" y="289.875924" style="fill: #1d3557; stroke: #1d3557"/>
     <use xlink:href="#mf199bd6526" x="592.516235" y="271.546991" style="fill: #1d3557; stroke: #1d3557"/>
     <use xlink:href="#mf199bd6526" x="603.221934" y="322.854433" style="fill: #1d3557; stroke: #1d3557"/>
     <use xlink:href="#mf199bd6526" x="613.927632" y="329.640134" style="fill: #1d3557; stroke: #1d3557"/>
     <use xlink:href="#mf199bd6526" x="624.633331" y="298.644558" style="fill: #1d3557; stroke: #1d3557"/>
     <use xlink:href="#mf199bd6526" x="635.33903" y="300.552094" style="fill: #1d3557; stroke: #1d3557"/>
     <use xlink:href="#mf199bd6526" x="646.044729" y="359.376585" style="fill: #1d3557; stroke: #1d3557"/>
     <use xlink:href="#mf199bd6526" x="656.750427" y="326.375458" style="fill: #1d3557; stroke: #1d3557"/>
     <use xlink:href="#mf199bd6526" x="667.456126" y="352.847232" style="fill: #1d3557; stroke: #1d3557"/>
     <use xlink:href="#mf199bd6526" x="678.161825" y="299.609636" style="fill: #1d3557; stroke: #1d3557"/>
     <use xlink:href="#mf199bd6526" x="688.867524" y="353.450406" style="fill: #1d3557; stroke: #1d3557"/>
     <use xlink:href="#mf199bd6526" x="699.573223" y="354.505959" style="fill: #1d3557; stroke: #1d3557"/>
     <use xlink:href="#mf199bd6526" x="710.278921" y="342.095666" style="fill: #1d3557; stroke: #1d3557"/>
     <use xlink:href="#mf199bd6526" x="720.98462" y="288.345372" style="fill: #1d3557; stroke: #1d3557"/>
     <use xlink:href="#mf199bd6526" x="731.690319" y="332.580605" style="fill: #1d3557; stroke: #1d3557"/>
     <use xlink:href="#mf199bd6526" x="742.396018" y="240.574034" style="fill: #1d3557; stroke: #1d3557"/>
     <use xlink:href="#mf199bd6526" x="753.101716" y="196.715785" style="fill: #1d3557; stroke: #1d3557"/>
     <use xlink:href="#mf199bd6526" x="763.807415" y="313.904847" style="fill: #1d3557; stroke: #1d3557"/>
     <use xlink:href="#mf199bd6526" x="774.513114" y="244.615297" style="fill: #1d3557; stroke: #1d3557"/>
     <use xlink:href="#mf199bd6526" x="785.218813" y="288.352911" style="fill: #1d3557; stroke: #1d3557"/>
     <use xlink:href="#mf199bd6526" x="795.924512" y="250.880761" style="fill: #1d3557; stroke: #1d3557"/>
     <use xlink:href="#mf199bd6526" x="806.63021" y="282.313637" style="fill: #1d3557; stroke: #1d3557"/>
     <use xlink:href="#mf199bd6526" x="817.335909" y="311.967152" style="fill: #1d3557; stroke: #1d3557"/>
    </g>
   </g>
   <g id="line2d_28">
    <path d="M 100.054091 291.994571 
L 110.75979 307.285018 
L 121.465488 266.435096 
L 132.171187 293.992583 
L 142.876886 327.385773 
L 153.582585 346.868276 
L 164.288284 309.494141 
L 174.993982 354.784927 
L 185.699681 291.11997 
L 196.40538 295.802103 
L 207.111079 361.2992 
L 217.816777 368.476964 
L 228.522476 369.849184 
L 239.228175 308.431048 
L 249.933874 369.012281 
L 260.639573 355.757544 
L 271.345271 359.542458 
L 282.05097 349.891683 
L 292.756669 337.828214 
L 303.462368 347.735337 
L 314.168066 272.112466 
L 324.873765 243.318474 
L 335.579464 316.264763 
L 346.285163 367.21784 
L 356.990862 256.565671 
L 367.69656 352.847232 
L 378.402259 332.113145 
L 389.107958 330.801243 
L 399.813657 358.125 
L 410.519355 356.172226 
L 421.225054 356.805558 
L 431.930753 362.44523 
L 442.636452 360.205949 
L 453.342151 324.27189 
L 464.047849 349.03216 
L 474.753548 329.790927 
L 485.459247 369.607915 
L 496.164946 334.156395 
L 506.870645 367.346014 
L 517.576343 322.741338 
L 528.282042 286.671565 
L 538.987741 332.640922 
L 549.69344 373.287273 
L 560.399138 367.745617 
L 571.104837 371.605927 
L 581.810536 343.151219 
L 592.516235 293.660838 
L 603.221934 373.287273 
L 613.927632 355.463497 
L 624.633331 317.554046 
L 635.33903 339.939321 
L 646.044729 371.786879 
L 656.750427 300.43146 
L 667.456126 373.287273 
L 678.161825 333.063143 
L 688.867524 366.52419 
L 699.573223 360.334123 
L 710.278921 339.9544 
L 720.98462 309.73541 
L 731.690319 340.730986 
L 742.396018 249.659335 
L 753.101716 52.632727 
L 763.807415 351.3016 
L 774.513114 286.204106 
L 785.218813 303.070344 
L 795.924512 206.502274 
L 806.63021 280.255308 
L 817.335909 285.43506 
" clip-path="url(#peb46c8322b)" style="fill: none; stroke: #e63946; stroke-width: 2.2; stroke-linecap: square"/>
    <defs>
     <path id="m892102930c" d="M -1.5 1.5 
L 1.5 1.5 
L 1.5 -1.5 
L -1.5 -1.5 
z
" style="stroke: #e63946; stroke-linejoin: miter"/>
    </defs>
    <g clip-path="url(#peb46c8322b)">
     <use xlink:href="#m892102930c" x="100.054091" y="291.994571" style="fill: #e63946; stroke: #e63946; stroke-linejoin: miter"/>
     <use xlink:href="#m892102930c" x="110.75979" y="307.285018" style="fill: #e63946; stroke: #e63946; stroke-linejoin: miter"/>
     <use xlink:href="#m892102930c" x="121.465488" y="266.435096" style="fill: #e63946; stroke: #e63946; stroke-linejoin: miter"/>
     <use xlink:href="#m892102930c" x="132.171187" y="293.992583" style="fill: #e63946; stroke: #e63946; stroke-linejoin: miter"/>
     <use xlink:href="#m892102930c" x="142.876886" y="327.385773" style="fill: #e63946; stroke: #e63946; stroke-linejoin: miter"/>
     <use xlink:href="#m892102930c" x="153.582585" y="346.868276" style="fill: #e63946; stroke: #e63946; stroke-linejoin: miter"/>
     <use xlink:href="#m892102930c" x="164.288284" y="309.494141" style="fill: #e63946; stroke: #e63946; stroke-linejoin: miter"/>
     <use xlink:href="#m892102930c" x="174.993982" y="354.784927" style="fill: #e63946; stroke: #e63946; stroke-linejoin: miter"/>
     <use xlink:href="#m892102930c" x="185.699681" y="291.11997" style="fill: #e63946; stroke: #e63946; stroke-linejoin: miter"/>
     <use xlink:href="#m892102930c" x="196.40538" y="295.802103" style="fill: #e63946; stroke: #e63946; stroke-linejoin: miter"/>
     <use xlink:href="#m892102930c" x="207.111079" y="361.2992" style="fill: #e63946; stroke: #e63946; stroke-linejoin: miter"/>
     <use xlink:href="#m892102930c" x="217.816777" y="368.476964" style="fill: #e63946; stroke: #e63946; stroke-linejoin: miter"/>
     <use xlink:href="#m892102930c" x="228.522476" y="369.849184" style="fill: #e63946; stroke: #e63946; stroke-linejoin: miter"/>
     <use xlink:href="#m892102930c" x="239.228175" y="308.431048" style="fill: #e63946; stroke: #e63946; stroke-linejoin: miter"/>
     <use xlink:href="#m892102930c" x="249.933874" y="369.012281" style="fill: #e63946; stroke: #e63946; stroke-linejoin: miter"/>
     <use xlink:href="#m892102930c" x="260.639573" y="355.757544" style="fill: #e63946; stroke: #e63946; stroke-linejoin: miter"/>
     <use xlink:href="#m892102930c" x="271.345271" y="359.542458" style="fill: #e63946; stroke: #e63946; stroke-linejoin: miter"/>
     <use xlink:href="#m892102930c" x="282.05097" y="349.891683" style="fill: #e63946; stroke: #e63946; stroke-linejoin: miter"/>
     <use xlink:href="#m892102930c" x="292.756669" y="337.828214" style="fill: #e63946; stroke: #e63946; stroke-linejoin: miter"/>
     <use xlink:href="#m892102930c" x="303.462368" y="347.735337" style="fill: #e63946; stroke: #e63946; stroke-linejoin: miter"/>
     <use xlink:href="#m892102930c" x="314.168066" y="272.112466" style="fill: #e63946; stroke: #e63946; stroke-linejoin: miter"/>
     <use xlink:href="#m892102930c" x="324.873765" y="243.318474" style="fill: #e63946; stroke: #e63946; stroke-linejoin: miter"/>
     <use xlink:href="#m892102930c" x="335.579464" y="316.264763" style="fill: #e63946; stroke: #e63946; stroke-linejoin: miter"/>
     <use xlink:href="#m892102930c" x="346.285163" y="367.21784" style="fill: #e63946; stroke: #e63946; stroke-linejoin: miter"/>
     <use xlink:href="#m892102930c" x="356.990862" y="256.565671" style="fill: #e63946; stroke: #e63946; stroke-linejoin: miter"/>
     <use xlink:href="#m892102930c" x="367.69656" y="352.847232" style="fill: #e63946; stroke: #e63946; stroke-linejoin: miter"/>
     <use xlink:href="#m892102930c" x="378.402259" y="332.113145" style="fill: #e63946; stroke: #e63946; stroke-linejoin: miter"/>
     <use xlink:href="#m892102930c" x="389.107958" y="330.801243" style="fill: #e63946; stroke: #e63946; stroke-linejoin: miter"/>
     <use xlink:href="#m892102930c" x="399.813657" y="358.125" style="fill: #e63946; stroke: #e63946; stroke-linejoin: miter"/>
     <use xlink:href="#m892102930c" x="410.519355" y="356.172226" style="fill: #e63946; stroke: #e63946; stroke-linejoin: miter"/>
     <use xlink:href="#m892102930c" x="421.225054" y="356.805558" style="fill: #e63946; stroke: #e63946; stroke-linejoin: miter"/>
     <use xlink:href="#m892102930c" x="431.930753" y="362.44523" style="fill: #e63946; stroke: #e63946; stroke-linejoin: miter"/>
     <use xlink:href="#m892102930c" x="442.636452" y="360.205949" style="fill: #e63946; stroke: #e63946; stroke-linejoin: miter"/>
     <use xlink:href="#m892102930c" x="453.342151" y="324.27189" style="fill: #e63946; stroke: #e63946; stroke-linejoin: miter"/>
     <use xlink:href="#m892102930c" x="464.047849" y="349.03216" style="fill: #e63946; stroke: #e63946; stroke-linejoin: miter"/>
     <use xlink:href="#m892102930c" x="474.753548" y="329.790927" style="fill: #e63946; stroke: #e63946; stroke-linejoin: miter"/>
     <use xlink:href="#m892102930c" x="485.459247" y="369.607915" style="fill: #e63946; stroke: #e63946; stroke-linejoin: miter"/>
     <use xlink:href="#m892102930c" x="496.164946" y="334.156395" style="fill: #e63946; stroke: #e63946; stroke-linejoin: miter"/>
     <use xlink:href="#m892102930c" x="506.870645" y="367.346014" style="fill: #e63946; stroke: #e63946; stroke-linejoin: miter"/>
     <use xlink:href="#m892102930c" x="517.576343" y="322.741338" style="fill: #e63946; stroke: #e63946; stroke-linejoin: miter"/>
     <use xlink:href="#m892102930c" x="528.282042" y="286.671565" style="fill: #e63946; stroke: #e63946; stroke-linejoin: miter"/>
     <use xlink:href="#m892102930c" x="538.987741" y="332.640922" style="fill: #e63946; stroke: #e63946; stroke-linejoin: miter"/>
     <use xlink:href="#m892102930c" x="549.69344" y="373.287273" style="fill: #e63946; stroke: #e63946; stroke-linejoin: miter"/>
     <use xlink:href="#m892102930c" x="560.399138" y="367.745617" style="fill: #e63946; stroke: #e63946; stroke-linejoin: miter"/>
     <use xlink:href="#m892102930c" x="571.104837" y="371.605927" style="fill: #e63946; stroke: #e63946; stroke-linejoin: miter"/>
     <use xlink:href="#m892102930c" x="581.810536" y="343.151219" style="fill: #e63946; stroke: #e63946; stroke-linejoin: miter"/>
     <use xlink:href="#m892102930c" x="592.516235" y="293.660838" style="fill: #e63946; stroke: #e63946; stroke-linejoin: miter"/>
     <use xlink:href="#m892102930c" x="603.221934" y="373.287273" style="fill: #e63946; stroke: #e63946; stroke-linejoin: miter"/>
     <use xlink:href="#m892102930c" x="613.927632" y="355.463497" style="fill: #e63946; stroke: #e63946; stroke-linejoin: miter"/>
     <use xlink:href="#m892102930c" x="624.633331" y="317.554046" style="fill: #e63946; stroke: #e63946; stroke-linejoin: miter"/>
     <use xlink:href="#m892102930c" x="635.33903" y="339.939321" style="fill: #e63946; stroke: #e63946; stroke-linejoin: miter"/>
     <use xlink:href="#m892102930c" x="646.044729" y="371.786879" style="fill: #e63946; stroke: #e63946; stroke-linejoin: miter"/>
     <use xlink:href="#m892102930c" x="656.750427" y="300.43146" style="fill: #e63946; stroke: #e63946; stroke-linejoin: miter"/>
     <use xlink:href="#m892102930c" x="667.456126" y="373.287273" style="fill: #e63946; stroke: #e63946; stroke-linejoin: miter"/>
     <use xlink:href="#m892102930c" x="678.161825" y="333.063143" style="fill: #e63946; stroke: #e63946; stroke-linejoin: miter"/>
     <use xlink:href="#m892102930c" x="688.867524" y="366.52419" style="fill: #e63946; stroke: #e63946; stroke-linejoin: miter"/>
     <use xlink:href="#m892102930c" x="699.573223" y="360.334123" style="fill: #e63946; stroke: #e63946; stroke-linejoin: miter"/>
     <use xlink:href="#m892102930c" x="710.278921" y="339.9544" style="fill: #e63946; stroke: #e63946; stroke-linejoin: miter"/>
     <use xlink:href="#m892102930c" x="720.98462" y="309.73541" style="fill: #e63946; stroke: #e63946; stroke-linejoin: miter"/>
     <use xlink:href="#m892102930c" x="731.690319" y="340.730986" style="fill: #e63946; stroke: #e63946; stroke-linejoin: miter"/>
     <use xlink:href="#m892102930c" x="742.396018" y="249.659335" style="fill: #e63946; stroke: #e63946; stroke-linejoin: miter"/>
     <use xlink:href="#m892102930c" x="753.101716" y="52.632727" style="fill: #e63946; stroke: #e63946; stroke-linejoin: miter"/>
     <use xlink:href="#m892102930c" x="763.807415" y="351.3016" style="fill: #e63946; stroke: #e63946; stroke-linejoin: miter"/>
     <use xlink:href="#m892102930c" x="774.513114" y="286.204106" style="fill: #e63946; stroke: #e63946; stroke-linejoin: miter"/>
     <use xlink:href="#m892102930c" x="785.218813" y="303.070344" style="fill: #e63946; stroke: #e63946; stroke-linejoin: miter"/>
     <use xlink:href="#m892102930c" x="795.924512" y="206.502274" style="fill: #e63946; stroke: #e63946; stroke-linejoin: miter"/>
     <use xlink:href="#m892102930c" x="806.63021" y="280.255308" style="fill: #e63946; stroke: #e63946; stroke-linejoin: miter"/>
     <use xlink:href="#m892102930c" x="817.335909" y="285.43506" style="fill: #e63946; stroke: #e63946; stroke-linejoin: miter"/>
    </g>
   </g>
   <g id="patch_3">
    <path d="M 64.19 389.32 
L 64.19 36.6 
" style="fill: none; stroke: #cccccc; stroke-width: 0.8; stroke-linejoin: miter; stroke-linecap: square"/>
   </g>
   <g id="patch_4">
    <path d="M 853.2 389.32 
L 853.2 36.6 
" style="fill: none; stroke: #cccccc; stroke-width: 0.8; stroke-linejoin: miter; stroke-linecap: square"/>
   </g>
   <g id="patch_5">
    <path d="M 64.19 389.32 
L 853.2 389.32 
" style="fill: none; stroke: #cccccc; stroke-width: 0.8; stroke-linejoin: miter; stroke-linecap: square"/>
   </g>
   <g id="patch_6">
    <path d="M 64.19 36.6 
L 853.2 36.6 
" style="fill: none; stroke: #cccccc; stroke-width: 0.8; stroke-linejoin: miter; stroke-linecap: square"/>
   </g>
   <g id="text_16">
    <!-- Evolution of Text &amp; Code Volume Across Blog Posts -->
    <g transform="translate(257.405625 21.6) scale(0.14 -0.14)">
     <defs>
      <path id="DejaVuSans-Bold-45" d="M 588 4666 
L 3834 4666 
L 3834 3756 
L 1791 3756 
L 1791 2888 
L 3713 2888 
L 3713 1978 
L 1791 1978 
L 1791 909 
L 3903 909 
L 3903 0 
L 588 0 
L 588 4666 
z
" transform="scale(0.015625)"/>
      <path id="DejaVuSans-Bold-76" d="M 97 3500 
L 1216 3500 
L 2088 1081 
L 2956 3500 
L 4078 3500 
L 2700 0 
L 1472 0 
L 97 3500 
z
" transform="scale(0.015625)"/>
      <path id="DejaVuSans-Bold-6f" d="M 2203 2784 
Q 1831 2784 1636 2517 
Q 1441 2250 1441 1747 
Q 1441 1244 1636 976 
Q 1831 709 2203 709 
Q 2569 709 2762 976 
Q 2956 1244 2956 1747 
Q 2956 2250 2762 2517 
Q 2569 2784 2203 2784 
z
M 2203 3584 
Q 3106 3584 3614 3096 
Q 4122 2609 4122 1747 
Q 4122 884 3614 396 
Q 3106 -91 2203 -91 
Q 1297 -91 786 396 
Q 275 884 275 1747 
Q 275 2609 786 3096 
Q 1297 3584 2203 3584 
z
" transform="scale(0.015625)"/>
      <path id="DejaVuSans-Bold-6c" d="M 538 4863 
L 1656 4863 
L 1656 0 
L 538 0 
L 538 4863 
z
" transform="scale(0.015625)"/>
      <path id="DejaVuSans-Bold-75" d="M 500 1363 
L 500 3500 
L 1625 3500 
L 1625 3150 
Q 1625 2866 1622 2436 
Q 1619 2006 1619 1863 
Q 1619 1441 1641 1255 
Q 1663 1069 1716 984 
Q 1784 875 1895 815 
Q 2006 756 2150 756 
Q 2500 756 2700 1025 
Q 2900 1294 2900 1772 
L 2900 3500 
L 4019 3500 
L 4019 0 
L 2900 0 
L 2900 506 
Q 2647 200 2364 54 
Q 2081 -91 1741 -91 
Q 1134 -91 817 281 
Q 500 653 500 1363 
z
" transform="scale(0.015625)"/>
      <path id="DejaVuSans-Bold-74" d="M 1759 4494 
L 1759 3500 
L 2913 3500 
L 2913 2700 
L 1759 2700 
L 1759 1216 
Q 1759 972 1856 886 
Q 1953 800 2241 800 
L 2816 800 
L 2816 0 
L 1856 0 
Q 1194 0 917 276 
Q 641 553 641 1216 
L 641 2700 
L 84 2700 
L 84 3500 
L 641 3500 
L 641 4494 
L 1759 4494 
z
" transform="scale(0.015625)"/>
      <path id="DejaVuSans-Bold-69" d="M 538 3500 
L 1656 3500 
L 1656 0 
L 538 0 
L 538 3500 
z
M 538 4863 
L 1656 4863 
L 1656 3950 
L 538 3950 
L 538 4863 
z
" transform="scale(0.015625)"/>
      <path id="DejaVuSans-Bold-6e" d="M 4056 2131 
L 4056 0 
L 2931 0 
L 2931 347 
L 2931 1631 
Q 2931 2084 2911 2256 
Q 2891 2428 2841 2509 
Q 2775 2619 2662 2680 
Q 2550 2741 2406 2741 
Q 2056 2741 1856 2470 
Q 1656 2200 1656 1722 
L 1656 0 
L 538 0 
L 538 3500 
L 1656 3500 
L 1656 2988 
Q 1909 3294 2193 3439 
Q 2478 3584 2822 3584 
Q 3428 3584 3742 3212 
Q 4056 2841 4056 2131 
z
" transform="scale(0.015625)"/>
      <path id="DejaVuSans-Bold-20" transform="scale(0.015625)"/>
      <path id="DejaVuSans-Bold-66" d="M 2841 4863 
L 2841 4128 
L 2222 4128 
Q 1984 4128 1890 4042 
Q 1797 3956 1797 3744 
L 1797 3500 
L 2753 3500 
L 2753 2700 
L 1797 2700 
L 1797 0 
L 678 0 
L 678 2700 
L 122 2700 
L 122 3500 
L 678 3500 
L 678 3744 
Q 678 4316 997 4589 
Q 1316 4863 1984 4863 
L 2841 4863 
z
" transform="scale(0.015625)"/>
      <path id="DejaVuSans-Bold-54" d="M 31 4666 
L 4331 4666 
L 4331 3756 
L 2784 3756 
L 2784 0 
L 1581 0 
L 1581 3756 
L 31 3756 
L 31 4666 
z
" transform="scale(0.015625)"/>
      <path id="DejaVuSans-Bold-65" d="M 4031 1759 
L 4031 1441 
L 1416 1441 
Q 1456 1047 1700 850 
Q 1944 653 2381 653 
Q 2734 653 3104 758 
Q 3475 863 3866 1075 
L 3866 213 
Q 3469 63 3072 -14 
Q 2675 -91 2278 -91 
Q 1328 -91 801 392 
Q 275 875 275 1747 
Q 275 2603 792 3093 
Q 1309 3584 2216 3584 
Q 3041 3584 3536 3087 
Q 4031 2591 4031 1759 
z
M 2881 2131 
Q 2881 2450 2695 2645 
Q 2509 2841 2209 2841 
Q 1884 2841 1681 2658 
Q 1478 2475 1428 2131 
L 2881 2131 
z
" transform="scale(0.015625)"/>
      <path id="DejaVuSans-Bold-78" d="M 1422 1791 
L 159 3500 
L 1344 3500 
L 2059 2463 
L 2784 3500 
L 3969 3500 
L 2706 1797 
L 4031 0 
L 2847 0 
L 2059 1106 
L 1281 0 
L 97 0 
L 1422 1791 
z
" transform="scale(0.015625)"/>
      <path id="DejaVuSans-Bold-26" d="M 2497 3097 
L 3775 1691 
Q 3941 1909 4027 2181 
Q 4113 2453 4128 2797 
L 5100 2797 
Q 5053 2228 4879 1784 
Q 4706 1341 4397 1006 
L 5313 0 
L 3988 0 
L 3681 341 
Q 3353 122 2990 15 
Q 2628 -91 2222 -91 
Q 1400 -91 892 342 
Q 384 775 384 1459 
Q 384 1916 607 2267 
Q 831 2619 1338 2950 
Q 1206 3116 1143 3281 
Q 1081 3447 1081 3628 
Q 1081 4138 1478 4444 
Q 1875 4750 2534 4750 
Q 2819 4750 3126 4704 
Q 3434 4659 3769 4569 
L 3769 3700 
Q 3475 3850 3212 3922 
Q 2950 3994 2700 3994 
Q 2459 3994 2326 3901 
Q 2194 3809 2194 3641 
Q 2194 3534 2270 3398 
Q 2347 3263 2497 3097 
z
M 1875 2322 
Q 1672 2175 1569 1989 
Q 1466 1803 1466 1581 
Q 1466 1222 1731 969 
Q 1997 716 2369 716 
Q 2578 716 2759 780 
Q 2941 844 3097 972 
L 1875 2322 
z
" transform="scale(0.015625)"/>
      <path id="DejaVuSans-Bold-43" d="M 4288 256 
Q 3956 84 3597 -3 
Q 3238 -91 2847 -91 
Q 1681 -91 1000 561 
Q 319 1213 319 2328 
Q 319 3447 1000 4098 
Q 1681 4750 2847 4750 
Q 3238 4750 3597 4662 
Q 3956 4575 4288 4403 
L 4288 3438 
Q 3953 3666 3628 3772 
Q 3303 3878 2944 3878 
Q 2300 3878 1931 3465 
Q 1563 3053 1563 2328 
Q 1563 1606 1931 1193 
Q 2300 781 2944 781 
Q 3303 781 3628 887 
Q 3953 994 4288 1222 
L 4288 256 
z
" transform="scale(0.015625)"/>
      <path id="DejaVuSans-Bold-64" d="M 2919 2988 
L 2919 4863 
L 4044 4863 
L 4044 0 
L 2919 0 
L 2919 506 
Q 2688 197 2409 53 
Q 2131 -91 1766 -91 
Q 1119 -91 703 423 
Q 288 938 288 1747 
Q 288 2556 703 3070 
Q 1119 3584 1766 3584 
Q 2128 3584 2408 3439 
Q 2688 3294 2919 2988 
z
M 2181 722 
Q 2541 722 2730 984 
Q 2919 1247 2919 1747 
Q 2919 2247 2730 2509 
Q 2541 2772 2181 2772 
Q 1825 2772 1636 2509 
Q 1447 2247 1447 1747 
Q 1447 1247 1636 984 
Q 1825 722 2181 722 
z
" transform="scale(0.015625)"/>
      <path id="DejaVuSans-Bold-56" d="M 31 4666 
L 1241 4666 
L 2478 1222 
L 3713 4666 
L 4922 4666 
L 3194 0 
L 1759 0 
L 31 4666 
z
" transform="scale(0.015625)"/>
      <path id="DejaVuSans-Bold-6d" d="M 3781 2919 
Q 3994 3244 4286 3414 
Q 4578 3584 4928 3584 
Q 5531 3584 5847 3212 
Q 6163 2841 6163 2131 
L 6163 0 
L 5038 0 
L 5038 1825 
Q 5041 1866 5042 1909 
Q 5044 1953 5044 2034 
Q 5044 2406 4934 2573 
Q 4825 2741 4581 2741 
Q 4263 2741 4089 2478 
Q 3916 2216 3909 1719 
L 3909 0 
L 2784 0 
L 2784 1825 
Q 2784 2406 2684 2573 
Q 2584 2741 2328 2741 
Q 2006 2741 1831 2477 
Q 1656 2213 1656 1722 
L 1656 0 
L 531 0 
L 531 3500 
L 1656 3500 
L 1656 2988 
Q 1863 3284 2130 3434 
Q 2397 3584 2719 3584 
Q 3081 3584 3359 3409 
Q 3638 3234 3781 2919 
z
" transform="scale(0.015625)"/>
      <path id="DejaVuSans-Bold-41" d="M 3419 850 
L 1538 850 
L 1241 0 
L 31 0 
L 1759 4666 
L 3194 4666 
L 4922 0 
L 3713 0 
L 3419 850 
z
M 1838 1716 
L 3116 1716 
L 2478 3572 
L 1838 1716 
z
" transform="scale(0.015625)"/>
      <path id="DejaVuSans-Bold-63" d="M 3366 3391 
L 3366 2478 
Q 3138 2634 2908 2709 
Q 2678 2784 2431 2784 
Q 1963 2784 1702 2511 
Q 1441 2238 1441 1747 
Q 1441 1256 1702 982 
Q 1963 709 2431 709 
Q 2694 709 2930 787 
Q 3166 866 3366 1019 
L 3366 103 
Q 3103 6 2833 -42 
Q 2563 -91 2291 -91 
Q 1344 -91 809 395 
Q 275 881 275 1747 
Q 275 2613 809 3098 
Q 1344 3584 2291 3584 
Q 2566 3584 2833 3536 
Q 3100 3488 3366 3391 
z
" transform="scale(0.015625)"/>
      <path id="DejaVuSans-Bold-72" d="M 3138 2547 
Q 2991 2616 2845 2648 
Q 2700 2681 2553 2681 
Q 2122 2681 1889 2404 
Q 1656 2128 1656 1613 
L 1656 0 
L 538 0 
L 538 3500 
L 1656 3500 
L 1656 2925 
Q 1872 3269 2151 3426 
Q 2431 3584 2822 3584 
Q 2878 3584 2943 3579 
Q 3009 3575 3134 3559 
L 3138 2547 
z
" transform="scale(0.015625)"/>
      <path id="DejaVuSans-Bold-73" d="M 3272 3391 
L 3272 2541 
Q 2913 2691 2578 2766 
Q 2244 2841 1947 2841 
Q 1628 2841 1473 2761 
Q 1319 2681 1319 2516 
Q 1319 2381 1436 2309 
Q 1553 2238 1856 2203 
L 2053 2175 
Q 2913 2066 3209 1816 
Q 3506 1566 3506 1031 
Q 3506 472 3093 190 
Q 2681 -91 1863 -91 
Q 1516 -91 1145 -36 
Q 775 19 384 128 
L 384 978 
Q 719 816 1070 734 
Q 1422 653 1784 653 
Q 2113 653 2278 743 
Q 2444 834 2444 1013 
Q 2444 1163 2330 1236 
Q 2216 1309 1875 1350 
L 1678 1375 
Q 931 1469 631 1722 
Q 331 1975 331 2491 
Q 331 3047 712 3315 
Q 1094 3584 1881 3584 
Q 2191 3584 2531 3537 
Q 2872 3491 3272 3391 
z
" transform="scale(0.015625)"/>
      <path id="DejaVuSans-Bold-42" d="M 2456 2859 
Q 2741 2859 2887 2984 
Q 3034 3109 3034 3353 
Q 3034 3594 2887 3720 
Q 2741 3847 2456 3847 
L 1791 3847 
L 1791 2859 
L 2456 2859 
z
M 2497 819 
Q 2859 819 3042 972 
Q 3225 1125 3225 1434 
Q 3225 1738 3044 1889 
Q 2863 2041 2497 2041 
L 1791 2041 
L 1791 819 
L 2497 819 
z
M 3616 2497 
Q 4003 2384 4215 2081 
Q 4428 1778 4428 1338 
Q 4428 663 3972 331 
Q 3516 0 2584 0 
L 588 0 
L 588 4666 
L 2394 4666 
Q 3366 4666 3802 4372 
Q 4238 4078 4238 3431 
Q 4238 3091 4078 2852 
Q 3919 2613 3616 2497 
z
" transform="scale(0.015625)"/>
      <path id="DejaVuSans-Bold-67" d="M 2919 594 
Q 2688 288 2409 144 
Q 2131 0 1766 0 
Q 1125 0 706 504 
Q 288 1009 288 1791 
Q 288 2575 706 3076 
Q 1125 3578 1766 3578 
Q 2131 3578 2409 3434 
Q 2688 3291 2919 2981 
L 2919 3500 
L 4044 3500 
L 4044 353 
Q 4044 -491 3511 -936 
Q 2978 -1381 1966 -1381 
Q 1638 -1381 1331 -1331 
Q 1025 -1281 716 -1178 
L 716 -306 
Q 1009 -475 1290 -558 
Q 1572 -641 1856 -641 
Q 2406 -641 2662 -400 
Q 2919 -159 2919 353 
L 2919 594 
z
M 2181 2772 
Q 1834 2772 1640 2515 
Q 1447 2259 1447 1791 
Q 1447 1309 1634 1061 
Q 1822 813 2181 813 
Q 2531 813 2725 1069 
Q 2919 1325 2919 1791 
Q 2919 2259 2725 2515 
Q 2531 2772 2181 2772 
z
" transform="scale(0.015625)"/>
      <path id="DejaVuSans-Bold-50" d="M 588 4666 
L 2584 4666 
Q 3475 4666 3951 4270 
Q 4428 3875 4428 3144 
Q 4428 2409 3951 2014 
Q 3475 1619 2584 1619 
L 1791 1619 
L 1791 0 
L 588 0 
L 588 4666 
z
M 1791 3794 
L 1791 2491 
L 2456 2491 
Q 2806 2491 2997 2661 
Q 3188 2831 3188 3144 
Q 3188 3456 2997 3625 
Q 2806 3794 2456 3794 
L 1791 3794 
z
" transform="scale(0.015625)"/>
     </defs>
     <use xlink:href="#DejaVuSans-Bold-45"/>
     <use xlink:href="#DejaVuSans-Bold-76" transform="translate(68.310547 0)"/>
     <use xlink:href="#DejaVuSans-Bold-6f" transform="translate(133.496094 0)"/>
     <use xlink:href="#DejaVuSans-Bold-6c" transform="translate(202.197266 0)"/>
     <use xlink:href="#DejaVuSans-Bold-75" transform="translate(236.474609 0)"/>
     <use xlink:href="#DejaVuSans-Bold-74" transform="translate(307.666016 0)"/>
     <use xlink:href="#DejaVuSans-Bold-69" transform="translate(355.46875 0)"/>
     <use xlink:href="#DejaVuSans-Bold-6f" transform="translate(389.746094 0)"/>
     <use xlink:href="#DejaVuSans-Bold-6e" transform="translate(458.447266 0)"/>
     <use xlink:href="#DejaVuSans-Bold-20" transform="translate(529.638672 0)"/>
     <use xlink:href="#DejaVuSans-Bold-6f" transform="translate(564.453125 0)"/>
     <use xlink:href="#DejaVuSans-Bold-66" transform="translate(633.154297 0)"/>
     <use xlink:href="#DejaVuSans-Bold-20" transform="translate(676.660156 0)"/>
     <use xlink:href="#DejaVuSans-Bold-54" transform="translate(711.474609 0)"/>
     <use xlink:href="#DejaVuSans-Bold-65" transform="translate(766.4375 0)"/>
     <use xlink:href="#DejaVuSans-Bold-78" transform="translate(834.259766 0)"/>
     <use xlink:href="#DejaVuSans-Bold-74" transform="translate(898.761719 0)"/>
     <use xlink:href="#DejaVuSans-Bold-20" transform="translate(946.564453 0)"/>
     <use xlink:href="#DejaVuSans-Bold-26" transform="translate(981.378906 0)"/>
     <use xlink:href="#DejaVuSans-Bold-20" transform="translate(1068.585938 0)"/>
     <use xlink:href="#DejaVuSans-Bold-43" transform="translate(1103.400391 0)"/>
     <use xlink:href="#DejaVuSans-Bold-6f" transform="translate(1176.789062 0)"/>
     <use xlink:href="#DejaVuSans-Bold-64" transform="translate(1245.490234 0)"/>
     <use xlink:href="#DejaVuSans-Bold-65" transform="translate(1317.072266 0)"/>
     <use xlink:href="#DejaVuSans-Bold-20" transform="translate(1384.894531 0)"/>
     <use xlink:href="#DejaVuSans-Bold-56" transform="translate(1419.708984 0)"/>
     <use xlink:href="#DejaVuSans-Bold-6f" transform="translate(1491.601562 0)"/>
     <use xlink:href="#DejaVuSans-Bold-6c" transform="translate(1560.302734 0)"/>
     <use xlink:href="#DejaVuSans-Bold-75" transform="translate(1594.580078 0)"/>
     <use xlink:href="#DejaVuSans-Bold-6d" transform="translate(1665.771484 0)"/>
     <use xlink:href="#DejaVuSans-Bold-65" transform="translate(1769.970703 0)"/>
     <use xlink:href="#DejaVuSans-Bold-20" transform="translate(1837.792969 0)"/>
     <use xlink:href="#DejaVuSans-Bold-41" transform="translate(1872.607422 0)"/>
     <use xlink:href="#DejaVuSans-Bold-63" transform="translate(1950 0)"/>
     <use xlink:href="#DejaVuSans-Bold-72" transform="translate(2009.277344 0)"/>
     <use xlink:href="#DejaVuSans-Bold-6f" transform="translate(2058.59375 0)"/>
     <use xlink:href="#DejaVuSans-Bold-73" transform="translate(2127.294922 0)"/>
     <use xlink:href="#DejaVuSans-Bold-73" transform="translate(2186.816406 0)"/>
     <use xlink:href="#DejaVuSans-Bold-20" transform="translate(2246.337891 0)"/>
     <use xlink:href="#DejaVuSans-Bold-42" transform="translate(2281.152344 0)"/>
     <use xlink:href="#DejaVuSans-Bold-6c" transform="translate(2357.373047 0)"/>
     <use xlink:href="#DejaVuSans-Bold-6f" transform="translate(2391.650391 0)"/>
     <use xlink:href="#DejaVuSans-Bold-67" transform="translate(2460.351562 0)"/>
     <use xlink:href="#DejaVuSans-Bold-20" transform="translate(2531.933594 0)"/>
     <use xlink:href="#DejaVuSans-Bold-50" transform="translate(2566.748047 0)"/>
     <use xlink:href="#DejaVuSans-Bold-6f" transform="translate(2640.039062 0)"/>
     <use xlink:href="#DejaVuSans-Bold-73" transform="translate(2708.740234 0)"/>
     <use xlink:href="#DejaVuSans-Bold-74" transform="translate(2768.261719 0)"/>
     <use xlink:href="#DejaVuSans-Bold-73" transform="translate(2816.064453 0)"/>
    </g>
   </g>
   <g id="legend_1">
    <g id="patch_7">
     <path d="M 730.839062 73.95625 
L 846.2 73.95625 
Q 848.2 73.95625 848.2 71.95625 
L 848.2 43.6 
Q 848.2 41.6 846.2 41.6 
L 730.839062 41.6 
Q 728.839062 41.6 728.839062 43.6 
L 728.839062 71.95625 
Q 728.839062 73.95625 730.839062 73.95625 
z
" style="fill: #ffffff; opacity: 0.8; stroke: #cccccc; stroke-linejoin: miter"/>
    </g>
    <g id="line2d_29">
     <path d="M 732.839062 49.698437 
L 742.839062 49.698437 
L 752.839062 49.698437 
" style="fill: none; stroke: #1d3557; stroke-width: 2.2; stroke-linecap: square"/>
     <g>
      <use xlink:href="#mf199bd6526" x="742.839062" y="49.698437" style="fill: #1d3557; stroke: #1d3557"/>
     </g>
    </g>
    <g id="text_17">
     <!-- Text Characters -->
     <g transform="translate(760.839062 53.198437) scale(0.1 -0.1)">
      <defs>
       <path id="DejaVuSans-54" d="M -19 4666 
L 3928 4666 
L 3928 4134 
L 2272 4134 
L 2272 0 
L 1638 0 
L 1638 4134 
L -19 4134 
L -19 4666 
z
" transform="scale(0.015625)"/>
      </defs>
      <use xlink:href="#DejaVuSans-54"/>
      <use xlink:href="#DejaVuSans-65" transform="translate(44.083984 0)"/>
      <use xlink:href="#DejaVuSans-78" transform="translate(103.857422 0)"/>
      <use xlink:href="#DejaVuSans-74" transform="translate(163.037109 0)"/>
      <use xlink:href="#DejaVuSans-20" transform="translate(202.246094 0)"/>
      <use xlink:href="#DejaVuSans-43" transform="translate(234.033203 0)"/>
      <use xlink:href="#DejaVuSans-68" transform="translate(303.857422 0)"/>
      <use xlink:href="#DejaVuSans-61" transform="translate(367.236328 0)"/>
      <use xlink:href="#DejaVuSans-72" transform="translate(428.515625 0)"/>
      <use xlink:href="#DejaVuSans-61" transform="translate(469.628906 0)"/>
      <use xlink:href="#DejaVuSans-63" transform="translate(530.908203 0)"/>
      <use xlink:href="#DejaVuSans-74" transform="translate(585.888672 0)"/>
      <use xlink:href="#DejaVuSans-65" transform="translate(625.097656 0)"/>
      <use xlink:href="#DejaVuSans-72" transform="translate(686.621094 0)"/>
      <use xlink:href="#DejaVuSans-73" transform="translate(727.734375 0)"/>
     </g>
    </g>
    <g id="line2d_30">
     <path d="M 732.839062 64.376562 
L 742.839062 64.376562 
L 752.839062 64.376562 
" style="fill: none; stroke: #e63946; stroke-width: 2.2; stroke-linecap: square"/>
     <g>
      <use xlink:href="#m892102930c" x="742.839062" y="64.376562" style="fill: #e63946; stroke: #e63946; stroke-linejoin: miter"/>
     </g>
    </g>
    <g id="text_18">
     <!-- Code Characters -->
     <g transform="translate(760.839062 67.876562) scale(0.1 -0.1)">
      <use xlink:href="#DejaVuSans-43"/>
      <use xlink:href="#DejaVuSans-6f" transform="translate(69.824219 0)"/>
      <use xlink:href="#DejaVuSans-64" transform="translate(131.005859 0)"/>
      <use xlink:href="#DejaVuSans-65" transform="translate(194.482422 0)"/>
      <use xlink:href="#DejaVuSans-20" transform="translate(256.005859 0)"/>
      <use xlink:href="#DejaVuSans-43" transform="translate(287.792969 0)"/>
      <use xlink:href="#DejaVuSans-68" transform="translate(357.617188 0)"/>
      <use xlink:href="#DejaVuSans-61" transform="translate(420.996094 0)"/>
      <use xlink:href="#DejaVuSans-72" transform="translate(482.275391 0)"/>
      <use xlink:href="#DejaVuSans-61" transform="translate(523.388672 0)"/>
      <use xlink:href="#DejaVuSans-63" transform="translate(584.667969 0)"/>
      <use xlink:href="#DejaVuSans-74" transform="translate(639.648438 0)"/>
      <use xlink:href="#DejaVuSans-65" transform="translate(678.857422 0)"/>
      <use xlink:href="#DejaVuSans-72" transform="translate(740.380859 0)"/>
      <use xlink:href="#DejaVuSans-73" transform="translate(781.494141 0)"/>
     </g>
    </g>
   </g>
  </g>
 </g>
 <defs>
  <clipPath id="peb46c8322b">
   <rect x="64.19" y="36.6" width="789.01" height="352.72"/>
  </clipPath>
 </defs>
</svg>
